<?xml version="1.0" standalone="no"?>
<!DOCTYPE svg PUBLIC "-//W3C//DTD SVG 20010904//EN"
 "http://www.w3.org/TR/2001/REC-SVG-20010904/DTD/svg10.dtd">
<svg version="1.0" xmlns="http://www.w3.org/2000/svg"
 width="512.000000pt" height="512.000000pt" viewBox="0 0 512.000000 512.000000"
 preserveAspectRatio="xMidYMid meet">
<metadata>
Created by potrace 1.11, written by Peter Selinger 2001-2013
</metadata>
<g transform="translate(0.000000,512.000000) scale(0.100000,-0.100000)"
fill="#000000" stroke="none">
<path d="M210 5109 c-36 -3 -78 -13 -95 -21 -39 -21 -81 -66 -94 -101 -8 -20
-11 -609 -11 -1923 l0 -1894 118 0 c118 0 119 0 133 26 22 43 97 102 149 119
56 19 181 22 223 6 38 -15 37 -16 37 24 0 32 -3 35 -28 35 -78 0 -217 111
-270 216 -49 98 -66 167 -65 279 1 210 94 377 255 462 47 25 63 28 148 28 83
0 103 -4 153 -27 233 -110 329 -467 195 -731 -61 -121 -205 -233 -289 -225
l-34 3 -3 137 -3 137 45 30 c67 46 105 125 87 175 -6 16 -10 9 -20 -29 -8 -30
-24 -60 -46 -82 -61 -61 -75 -43 -75 100 0 71 -3 87 -15 87 -13 0 -15 -25 -15
-169 0 -99 -4 -172 -10 -176 -14 -9 -64 20 -93 55 -14 16 -34 56 -44 87 l-18
58 -3 -44 c-6 -85 44 -163 137 -213 l32 -18 -3 -112 -3 -111 33 -20 33 -19 61
27 c80 36 169 38 245 5 28 -12 59 -30 69 -41 21 -23 33 -24 79 -2 l35 17 0
430 0 431 76 40 c42 22 77 38 78 36 1 -3 283 138 590 296 67 34 127 62 134 62
9 1 12 -49 12 -219 l0 -220 89 44 c48 25 202 107 342 184 300 164 399 215 406
208 3 -3 8 -100 11 -216 3 -115 6 -210 7 -210 6 0 319 152 585 284 162 80 298
146 302 146 5 0 8 -286 8 -635 l0 -635 53 22 c33 13 75 21 114 21 85 1 182
-47 233 -116 l35 -47 77 0 77 0 3 -67 c2 -42 8 -68 16 -71 9 -3 12 33 12 160
l0 163 35 30 c24 20 37 41 40 65 5 34 5 34 -7 9 -38 -77 -68 -79 -68 -5 0 30
-4 57 -9 60 -12 8 -21 -45 -21 -125 0 -41 -4 -69 -10 -69 -18 0 -59 47 -66 74
-9 38 -28 32 -20 -6 4 -22 21 -47 51 -74 41 -37 45 -44 45 -88 0 -45 -1 -47
-23 -40 -67 20 -138 78 -167 135 -40 78 -42 237 -4 311 66 129 193 182 309
129 129 -58 190 -267 121 -416 -35 -78 -68 -111 -141 -146 l-60 -28 308 -1
307 0 -2 1893 -3 1893 -25 49 c-21 41 -35 55 -80 77 l-55 28 -2340 2 c-1287 2
-2369 0 -2405 -3z m1803 -410 c40 -26 53 -30 86 -24 29 5 53 1 92 -15 30 -12
64 -26 76 -31 21 -8 42 -53 31 -65 -7 -6 -196 -9 -425 -6 l-193 2 0 27 c0 42
36 73 85 73 33 0 49 7 79 35 52 47 103 48 169 4z m1435 -94 c67 -31 153 -112
188 -179 l28 -53 55 14 c149 40 302 -34 370 -177 22 -46 26 -69 26 -140 0 -72
-4 -92 -27 -136 -30 -57 -88 -113 -150 -145 -32 -17 -68 -24 -138 -28 l-94 -6
-8 -41 c-12 -58 -66 -143 -116 -181 -115 -87 -285 -80 -395 17 l-37 32 -37
-32 c-74 -65 -164 -90 -258 -70 l-57 12 -47 -46 c-80 -79 -190 -110 -304 -86
-68 14 -126 55 -180 127 l-38 51 -55 -28 c-84 -45 -153 -49 -261 -15 -18 6
-30 0 -58 -28 l-35 -35 0 68 c0 53 -4 69 -16 74 -9 3 -89 6 -179 6 -184 0
-175 -4 -175 83 0 102 80 213 172 237 23 7 67 10 96 8 l54 -5 56 57 c74 74
133 95 236 86 l72 -6 22 44 c14 29 37 55 64 73 37 24 53 28 116 28 l72 0 29
51 c71 123 200 182 337 154 33 -6 74 -20 92 -31 39 -22 52 -24 52 -6 0 31 64
138 104 175 115 106 290 137 424 77z m-2746 -1416 c33 -26 39 -27 69 -17 27 9
39 8 73 -9 23 -11 59 -24 81 -29 37 -8 40 -12 43 -46 l3 -38 -312 0 -312 0 6
37 c8 50 29 67 80 68 32 1 53 9 80 31 20 16 47 32 59 35 39 11 91 -2 130 -32z
m1135 19 c-3 -8 -6 -5 -6 6 -1 11 2 17 5 13 3 -3 4 -12 1 -19z m2435 -90 c51
-22 93 -63 129 -126 22 -38 23 -39 72 -34 88 9 139 -35 141 -120 l1 -43 -502
-3 -503 -2 0 42 c0 128 113 205 243 166 33 -10 41 -10 45 1 8 23 63 80 100
103 83 51 180 57 274 16z m-2425 -140 c-3 -7 -5 -2 -5 12 0 14 2 19 5 13 2 -7
2 -19 0 -25z m-430 -290 c-3 -8 -6 -5 -6 6 -1 11 2 17 5 13 3 -3 4 -12 1 -19z
m450 -160 c-3 -7 -5 -2 -5 12 0 14 2 19 5 13 2 -7 2 -19 0 -25z"/>
<path d="M1530 1655 l0 -125 110 0 110 0 0 125 0 125 -110 0 -110 0 0 -125z"/>
<path d="M1993 1764 c-6 -15 2 -223 9 -229 2 -2 48 -5 103 -7 l100 -3 3 55 c2
30 1 88 -3 128 l-7 72 -99 0 c-82 0 -101 -3 -106 -16z"/>
<path d="M2910 1655 l0 -125 110 0 110 0 0 125 0 125 -110 0 -110 0 0 -125z"/>
<path d="M3377 1774 c-4 -4 -7 -61 -7 -126 l0 -118 110 0 110 0 0 120 0 120
-89 0 c-49 0 -96 2 -103 5 -8 3 -17 2 -21 -1z"/>
<path d="M2447 1703 c-4 -38 -4 -92 0 -120 l6 -53 103 0 104 0 0 120 0 120
-104 0 -103 0 -6 -67z"/>
</g>
</svg>
