<?xml version="1.0" ?><!DOCTYPE svg  PUBLIC '-//W3C//DTD SVG 1.1//EN'  'http://www.w3.org/Graphics/SVG/1.1/DTD/svg11.dtd'><svg enable-background="new 0 0 512 512" height="512px" id="Layer_1" version="1.1" viewBox="0 0 512 512" width="512px" xml:space="preserve" xmlns="http://www.w3.org/2000/svg" xmlns:xlink="http://www.w3.org/1999/xlink"><g><g><path d="m 231.67298,466.72251 c -46.90589,-5.43921 -91.54626,-27.18733 -125.50132,-61.14243 -83.202515,-83.20252 -83.202515,-216.45415 0,-299.65662 83.20253,-83.202523 216.45416,-83.202523 299.65668,0 83.20252,83.20247 83.20252,216.4541 0,299.65662 -34.8376,34.83762 -78.37455,55.66366 -128.14337,61.29788 -19.17498,2.17076 -26.15512,2.14717 -46.01198,-0.15538 z m 68.63977,-42.97756 c 58.33823,-15.45003 107.71336,-64.77485 123.80668,-123.68038 6.10752,-22.35528 6.15576,-65.20376 0.0983,-87.68276 C 408.11519,152.62199 359.67327,103.84998 300.31247,87.632369 277.95727,81.524825 235.10878,81.47659 212.62978,87.533749 152.18659,103.82047 104.06829,151.93875 87.781605,212.38191 c -6.05709,22.47899 -6.00885,65.32748 0.0986,87.68274 17.470745,63.94766 69.829205,112.66062 135.921255,126.45773 18.02042,3.76191 57.18768,2.34011 76.5109,-2.77733 z m -62.50624,-58.69022 c -7.82473,-2.41123 -17.12664,-13.22775 -18.73126,-21.78112 -1.84209,-9.81882 0.057,-24.01646 7.797,-58.19292 8.09633,-35.76496 9.00395,-49.21349 3.59257,-53.23341 -2.26804,-1.68487 -6.77408,-2.50873 -11.68112,-2.13578 -8.19406,0.62288 -9.92495,-0.74712 -9.92495,-7.85515 0,-5.17426 22.54611,-13.74731 36.00506,-13.69079 13.03867,0.0569 20.76598,3.87474 26.45322,13.07688 6.40427,10.36225 5.50002,26.30668 -3.84132,67.73572 -4.23741,18.79297 -7.70442,37.05997 -7.70442,40.59327 0,10.45609 4.17684,14.52163 15.59543,15.18008 9.03302,0.52097 9.90849,0.97873 10.42846,5.45347 0.50388,4.33348 -0.73,5.46716 -10.93076,10.04502 -12.63228,5.669 -27.85014,7.64207 -37.05791,4.80473 z m 15.58994,-173.42106 c -11.1648,-3.46388 -20.02428,-15.61176 -20.02428,-27.45696 0,-14.73357 14.18903,-29.10647 28.7341,-29.10647 7.36838,0 17.01887,5.80733 22.94794,13.80922 5.44198,7.34465 5.47186,23.46733 0.057,30.72013 -8.2051,10.98977 -20.29453,15.57712 -31.71461,12.03408 z" fill="#fff"/></g></g></svg>